<svg width="117" height="148" viewBox="0 0 117 148" fill="none" xmlns="http://www.w3.org/2000/svg">
<path d="M24.4989 86.2035L24.581 83.2046L18.5833 83.0403L18.5011 86.0392L21.5 86.1213L24.4989 86.2035ZM48.5 12.1213L50.0791 14.6721L50.2246 14.582L50.3589 14.476L48.5 12.1213ZM38 18.6213L39.5031 21.2176L39.5414 21.1954L39.5791 21.1721L38 18.6213ZM28.5 24.1213L26.9969 21.525L26.8426 21.6144L26.7 21.7213L28.5 24.1213ZM20.5 30.1213L18.7 27.7213L18.4847 27.8828L18.3016 28.08L20.5 30.1213ZM14 37.1213L11.8016 35.08L11.5596 35.3406L11.3853 35.6505L14 37.1213ZM9.5 45.1213L6.88527 43.6505L6.59074 44.1741L6.52055 44.7708L9.5 45.1213ZM8.5 53.6213L5.52055 53.2708L5.4749 53.6588L5.53015 54.0456L8.5 53.6213ZM9.5 60.6213L6.53015 61.0456L6.60561 61.5738L6.85859 62.0436L9.5 60.6213ZM13 67.1213L10.3586 68.5436L10.4104 68.6398L10.469 68.7319L13 67.1213ZM16.5 72.6213L13.969 74.2319L14.282 74.7237L14.7563 75.0625L16.5 72.6213ZM23.5 77.6213L21.7563 80.0625L21.7956 80.0906L21.8359 80.1175L23.5 77.6213ZM29.5 81.6213L27.8359 84.1175L27.8953 84.1571L27.9565 84.1938L29.5 81.6213ZM37 86.1213L38.8997 83.7995L38.7307 83.6612L38.5435 83.5488L37 86.1213ZM42.5 90.6213L44.7902 88.6835L44.6125 88.4736L44.3997 88.2995L42.5 90.6213ZM48 97.1213L50.4962 95.4572L50.401 95.3145L50.2902 95.1835L48 97.1213ZM52 103.121L54.6414 101.699L54.5745 101.575L54.4962 101.457L52 103.121ZM55.5 109.621L58.3252 108.612L58.2489 108.399L58.1414 108.199L55.5 109.621ZM57.8214 116.121L60.6467 115.112L54.8681 116.649L57.8214 116.121ZM58 117.121L55.0467 117.649L56.9911 128.538L60.815 118.158L58 117.121ZM61.5 107.621L58.7815 106.353L58.7284 106.466L58.685 106.584L61.5 107.621ZM65 100.121L62.7423 98.1458L62.4617 98.4665L62.2815 98.8527L65 100.121ZM72 92.1213L70.0794 89.8167L69.8979 89.968L69.7423 90.1458L72 92.1213ZM78 87.1213L76.3894 84.5903L76.2272 84.6936L76.0794 84.8167L78 87.1213ZM83.5 83.6213L85.1106 86.1523L85.1528 86.1255L85.1941 86.0972L83.5 83.6213ZM93 77.1213L94.6941 79.5972L94.9242 79.4398L95.1213 79.2426L93 77.1213ZM102 68.1213L104.121 70.2426L104.405 69.9586L104.605 69.6097L102 68.1213ZM106 61.1213L108.605 62.6097L108.824 62.2263L108.923 61.7959L106 61.1213ZM107.5 54.6213L110.423 55.2959L110.521 54.8702L110.494 54.4342L107.5 54.6213ZM107 46.6213L109.994 46.4342L109.959 45.8739L109.724 45.3641L107 46.6213ZM104 40.1213L106.724 38.8641L106.639 38.6809L106.531 38.5107L104 40.1213ZM100.5 34.6213L103.031 33.0107L102.752 32.5723L102.342 32.2533L100.5 34.6213ZM96 31.1213L97.8418 28.7533L97.8036 28.7236L97.7645 28.6951L96 31.1213ZM85 23.1213L86.7645 20.6951L86.6892 20.6403L86.6106 20.5903L85 23.1213ZM79.5 19.6213L81.1106 17.0903L81.0617 17.0592L81.0116 17.03L79.5 19.6213ZM73.5 16.1213L71.8004 18.5934L71.8922 18.6565L71.9884 18.7127L73.5 16.1213ZM65.5 10.6213L63.6582 12.9894L63.7278 13.0435L63.8004 13.0934L65.5 10.6213ZM61 7.12132L58.8787 9.24264L59.0107 9.37471L59.1582 9.48938L61 7.12132ZM24.5 58.6213L21.6539 57.6726L21.6014 57.8303L21.5666 57.9927L24.5 58.6213ZM25.5 55.6213L23.1574 53.7472L22.8231 54.165L22.6539 54.6726L25.5 55.6213ZM29.5 50.6213L31.8426 52.4954L31.8937 52.4316L31.9412 52.365L29.5 50.6213ZM32 47.1213L29.8787 45L29.7031 45.1756L29.5588 45.3776L32 47.1213ZM34 45.1213L32.1259 42.7787L31.9962 42.8825L31.8787 43L34 45.1213ZM36.5 43.1213L34.7563 40.6801L34.6898 40.7276L34.6259 40.7787L36.5 43.1213ZM40 40.6213L38.4565 38.0488L38.3538 38.1105L38.2563 38.1801L40 40.6213ZM42.5 39.1213L44.0435 41.6938L44.1047 41.6571L44.1641 41.6175L42.5 39.1213ZM47 36.1213L48.6641 38.6175L48.7334 38.5713L48.8 38.5213L47 36.1213ZM49 34.6213L47.4565 32.0488L47.3238 32.1285L47.2 32.2213L49 34.6213ZM51.5 33.1213L53.0435 35.6938L53.1462 35.6322L53.2437 35.5625L51.5 33.1213ZM55 30.6213L53.3359 28.1252L53.2957 28.152L53.2563 28.1801L55 30.6213ZM59.5 27.6213L61.3741 29.9639L57.8359 25.1252L59.5 27.6213ZM57 29.6213L55.1259 27.2787L51.3355 30.311L55.7428 32.3452L57 29.6213ZM63.5 32.6213L64.8416 29.938L64.7997 29.9171L64.7572 29.8974L63.5 32.6213ZM66.5 34.1213L68.1641 31.6252L68.0087 31.5216L64.7572 29.8974L63.5 32.6213ZM66.5 34.1213L68.1641 31.6252L68.0087 31.5216L67.8416 31.438L66.5 34.1213ZM69.5 36.1213L67.8359 38.6175L67.9219 38.6748L68.0116 38.726L69.5 36.1213ZM73 38.1213L74.9206 35.8167L74.7177 35.6476L74.4884 35.5166L73 38.1213ZM76 40.6213L74.0794 42.926L74.2026 43.0286L74.3359 43.1175L76 40.6213ZM83.5 45.6213L85.8047 43.7008L85.5261 43.3665L85.1641 43.1252L83.5 45.6213ZM86 48.6213L88.4412 46.8776L88.3762 46.7866L88.3047 46.7008L86 48.6213ZM91 55.6213L93.8943 54.832L93.7531 54.3143L93.4412 53.8776L91 55.6213ZM92.5 61.1213L95.4592 60.6281L95.4342 60.4784L95.3943 60.332L92.5 61.1213ZM93.5 67.1213H96.5V66.873L96.4592 66.6281L93.5 67.1213ZM93.5 129.121H90.5V129.699L90.7146 130.235L93.5 129.121ZM94.5 131.621L91.7146 132.735L91.8038 132.959L91.9275 133.165L94.5 131.621ZM96 134.121L93.4275 135.665L93.5071 135.798L93.6 135.921L96 134.121ZM97.5 136.121L95.1 137.921L95.2279 138.092L95.3787 138.243L97.5 136.121ZM100.5 139.121L98.3787 141.243L98.8141 141.678L99.3858 141.907L100.5 139.121ZM105.5 141.121L104.386 143.907L104.687 144.027L105.007 144.081L105.5 141.121ZM108.5 141.621L108.007 144.581L108.252 144.621H108.5V141.621ZM114 141.621H111V144.621H114V141.621ZM114 126.621H117V126.597L117 126.573L114 126.621ZM113.5 95.6213L116.5 95.5729L116.498 95.4724L116.49 95.3722L113.5 95.6213ZM113 89.6213L115.99 89.3722L115.942 88.7964L115.683 88.2797L113 89.6213ZM111 85.6213L113.683 84.2797L113.646 84.2052L113.605 84.1329L111 85.6213ZM109 82.1213L111.605 80.6329L111.405 80.2841L111.121 80L109 82.1213ZM11 78.6213C9.10822 76.293 9.10746 76.2936 9.10667 76.2942C9.10637 76.2945 9.10555 76.2952 9.10494 76.2957C9.10372 76.2966 9.10238 76.2977 9.10092 76.2989C9.09799 76.3013 9.09457 76.3041 9.09067 76.3073C9.08287 76.3137 9.07314 76.3217 9.06154 76.3314C9.03834 76.3506 9.00765 76.3763 8.96998 76.4082C8.89465 76.4721 8.79125 76.5612 8.66378 76.6744C8.40909 76.9007 8.05692 77.2246 7.63981 77.6374C6.80873 78.4598 5.70303 79.6516 4.5933 81.1428C2.41478 84.0702 0 88.4494 0 93.6213H3H6C6 90.2933 7.58522 87.1725 9.4067 84.7249C10.297 83.5285 11.1913 82.5641 11.8602 81.9022C12.1931 81.5727 12.4659 81.3224 12.6487 81.16C12.74 81.0789 12.8085 81.0201 12.8503 80.9846C12.8713 80.9668 12.8855 80.955 12.8926 80.9491C12.8961 80.9461 12.8978 80.9447 12.8977 80.9448C12.8977 80.9449 12.8972 80.9453 12.8962 80.9461C12.8957 80.9465 12.8951 80.947 12.8943 80.9476C12.894 80.9479 12.8933 80.9484 12.8931 80.9486C12.8925 80.9491 12.8918 80.9497 11 78.6213ZM3 93.6213H0C0 102.119 0 140.623 0 143.621H3H6C6 140.623 6 102.119 6 93.6213H3ZM3 143.621H0C0 144.679 0.445698 145.609 1.141 146.27C1.76012 146.859 2.47056 147.14 2.9966 147.286C4.0377 147.573 5.19967 147.554 6.22634 147.438C8.36316 147.198 11.0147 146.406 13.5916 145.117C18.6346 142.596 24.5 137.55 24.5 129.621H21.5H18.5C18.5 134.193 15.1154 137.647 10.9084 139.751C8.86034 140.775 6.88684 141.326 5.55491 141.476C4.84721 141.556 4.56387 141.494 4.59325 141.502C4.61343 141.508 4.92641 141.59 5.27453 141.921C5.69883 142.325 6 142.938 6 143.621H3ZM21.5 129.621H24.5C24.5 123.471 24.1669 98.3188 24.4989 86.2035L21.5 86.1213L18.5011 86.0392C18.1664 98.2572 18.5 123.665 18.5 129.621H21.5ZM58 4.62132L56.1411 2.26667L46.6411 9.76667L48.5 12.1213L50.3589 14.476L59.8589 6.97597L58 4.62132ZM48.5 12.1213L46.9209 9.57053L36.4209 16.0705L38 18.6213L39.5791 21.1721L50.0791 14.6721L48.5 12.1213ZM38 18.6213L36.4969 16.025L26.9969 21.525L28.5 24.1213L30.0031 26.7176L39.5031 21.2176L38 18.6213ZM28.5 24.1213L26.7 21.7213L18.7 27.7213L20.5 30.1213L22.3 32.5213L30.3 26.5213L28.5 24.1213ZM20.5 30.1213L18.3016 28.08L11.8016 35.08L14 37.1213L16.1984 39.1627L22.6984 32.1627L20.5 30.1213ZM14 37.1213L11.3853 35.6505L6.88527 43.6505L9.5 45.1213L12.1147 46.5921L16.6147 38.5921L14 37.1213ZM9.5 45.1213L6.52055 44.7708L5.52055 53.2708L8.5 53.6213L11.4795 53.9718L12.4795 45.4718L9.5 45.1213ZM8.5 53.6213L5.53015 54.0456L6.53015 61.0456L9.5 60.6213L12.4698 60.1971L11.4698 53.1971L8.5 53.6213ZM9.5 60.6213L6.85859 62.0436L10.3586 68.5436L13 67.1213L15.6414 65.699L12.1414 59.199L9.5 60.6213ZM13 67.1213L10.469 68.7319L13.969 74.2319L16.5 72.6213L19.031 71.0107L15.531 65.5107L13 67.1213ZM16.5 72.6213L14.7563 75.0625L21.7563 80.0625L23.5 77.6213L25.2437 75.1801L18.2437 70.1801L16.5 72.6213ZM23.5 77.6213L21.8359 80.1175L27.8359 84.1175L29.5 81.6213L31.1641 79.1252L25.1641 75.1252L23.5 77.6213ZM29.5 81.6213L27.9565 84.1938L35.4565 88.6938L37 86.1213L38.5435 83.5488L31.0435 79.0488L29.5 81.6213ZM37 86.1213L35.1003 88.4432L40.6003 92.9432L42.5 90.6213L44.3997 88.2995L38.8997 83.7995L37 86.1213ZM42.5 90.6213L40.2098 92.5591L45.7098 99.0591L48 97.1213L50.2902 95.1835L44.7902 88.6835L42.5 90.6213ZM48 97.1213L45.5038 98.7854L49.5038 104.785L52 103.121L54.4962 101.457L50.4962 95.4572L48 97.1213ZM52 103.121L49.3586 104.544L52.8586 111.044L55.5 109.621L58.1414 108.199L54.6414 101.699L52 103.121ZM55.5 109.621L52.6748 110.63L55.1748 117.63L58 116.621L60.8252 115.612L58.3252 108.612L55.5 109.621ZM58 116.621L60.8252 115.612L60.6467 115.112L57.8214 116.121L54.9962 117.13L55.1748 117.63L58 116.621ZM57.8214 116.121L54.8681 116.649L55.0467 117.649L58 117.121L60.9533 116.594L60.7747 115.594L57.8214 116.121ZM58 117.121L60.815 118.158L64.315 108.658L61.5 107.621L58.685 106.584L55.185 116.084L58 117.121ZM61.5 107.621L64.2185 108.89L67.7186 101.39L65 100.121L62.2815 98.8527L58.7815 106.353L61.5 107.621ZM65 100.121L67.2577 102.097L70.7577 98.0968L68.5 96.1213L66.2423 94.1458L62.7423 98.1458L65 100.121ZM68.5 96.1213L70.7577 98.0968L74.2577 94.0968L72 92.1213L69.7423 90.1458L66.2423 94.1458L68.5 96.1213ZM72 92.1213L73.9206 94.426L79.9206 89.426L78 87.1213L76.0794 84.8167L70.0794 89.8167L72 92.1213ZM78 87.1213L79.6106 89.6523L85.1106 86.1523L83.5 83.6213L81.8894 81.0903L76.3894 84.5903L78 87.1213ZM83.5 83.6213L85.1941 86.0972L94.6941 79.5972L93 77.1213L91.3059 74.6454L81.8059 81.1454L83.5 83.6213ZM93 77.1213L95.1213 79.2426L99.6213 74.7426L97.5 72.6213L95.3787 70.5L90.8787 75L93 77.1213ZM97.5 72.6213L99.6213 74.7426L104.121 70.2426L102 68.1213L99.8787 66L95.3787 70.5L97.5 72.6213ZM102 68.1213L104.605 69.6097L108.605 62.6097L106 61.1213L103.395 59.6329L99.3953 66.6329L102 68.1213ZM106 61.1213L108.923 61.7959L110.423 55.2959L107.5 54.6213L104.577 53.9467L103.077 60.4467L106 61.1213ZM107.5 54.6213L110.494 54.4342L109.994 46.4342L107 46.6213L104.006 46.8085L104.506 54.8085L107.5 54.6213ZM107 46.6213L109.724 45.3641L106.724 38.8641L104 40.1213L101.276 41.3785L104.276 47.8785L107 46.6213ZM104 40.1213L106.531 38.5107L103.031 33.0107L100.5 34.6213L97.969 36.2319L101.469 41.7319L104 40.1213ZM100.5 34.6213L102.342 32.2533L97.8418 28.7533L96 31.1213L94.1582 33.4894L98.6582 36.9894L100.5 34.6213ZM96 31.1213L97.7645 28.6951L92.2645 24.6951L90.5 27.1213L88.7355 29.5475L94.2355 33.5475L96 31.1213ZM90.5 27.1213L92.2645 24.6951L86.7645 20.6951L85 23.1213L83.2355 25.5475L88.7355 29.5475L90.5 27.1213ZM85 23.1213L86.6106 20.5903L81.1106 17.0903L79.5 19.6213L77.8894 22.1523L83.3894 25.6523L85 23.1213ZM79.5 19.6213L81.0116 17.03L75.0116 13.53L73.5 16.1213L71.9884 18.7127L77.9884 22.2127L79.5 19.6213ZM73.5 16.1213L75.1996 13.6492L67.1996 8.14919L65.5 10.6213L63.8004 13.0934L71.8004 18.5934L73.5 16.1213ZM65.5 10.6213L67.3418 8.25326L62.8418 4.75326L61 7.12132L59.1582 9.48938L63.6582 12.9894L65.5 10.6213ZM61 7.12132L63.1213 5L58.1213 4.76837e-07L56 2.12132L53.8787 4.24264L58.8787 9.24264L61 7.12132ZM23 65.6213L25.9334 66.2499L27.4334 59.2499L24.5 58.6213L21.5666 57.9927L20.0666 64.9927L23 65.6213ZM24.5 58.6213L27.3461 59.57L28.3461 56.57L25.5 55.6213L22.6539 54.6726L21.6539 57.6726L24.5 58.6213ZM25.5 55.6213L27.8426 57.4954L29.8426 54.9954L27.5 53.1213L25.1574 51.2472L23.1574 53.7472L25.5 55.6213ZM27.5 53.1213L29.8426 54.9954L31.8426 52.4954L29.5 50.6213L27.1574 48.7472L25.1574 51.2472L27.5 53.1213ZM29.5 50.6213L31.9412 52.365L34.4412 48.865L32 47.1213L29.5588 45.3776L27.0588 48.8776L29.5 50.6213ZM32 47.1213L34.1213 49.2426L36.1213 47.2426L34 45.1213L31.8787 43L29.8787 45L32 47.1213ZM34 45.1213L35.8741 47.4639L38.3741 45.4639L36.5 43.1213L34.6259 40.7787L32.1259 42.7787L34 45.1213ZM36.5 43.1213L38.2437 45.5625L41.7437 43.0625L40 40.6213L38.2563 38.1801L34.7563 40.6801L36.5 43.1213ZM40 40.6213L41.5435 43.1938L44.0435 41.6938L42.5 39.1213L40.9565 36.5488L38.4565 38.0488L40 40.6213ZM42.5 39.1213L44.1641 41.6175L48.6641 38.6175L47 36.1213L45.3359 33.6252L40.8359 36.6252L42.5 39.1213ZM47 36.1213L48.8 38.5213L50.8 37.0213L49 34.6213L47.2 32.2213L45.2 33.7213L47 36.1213ZM49 34.6213L50.5435 37.1938L53.0435 35.6938L51.5 33.1213L49.9565 30.5488L47.4565 32.0488L49 34.6213ZM51.5 33.1213L53.2437 35.5625L56.7437 33.0625L55 30.6213L53.2563 28.1801L49.7563 30.6801L51.5 33.1213ZM55 30.6213L56.6641 33.1175L61.1641 30.1175L59.5 27.6213L57.8359 25.1252L53.3359 28.1252L55 30.6213ZM59.5 27.6213L57.6259 25.2787L55.1259 27.2787L57 29.6213L58.8741 31.9639L61.3741 29.9639L59.5 27.6213ZM57 29.6213L55.7428 32.3452L62.2428 35.3452L63.5 32.6213L64.7572 29.8974L58.2572 26.8974L57 29.6213ZM63.5 32.6213L62.1584 35.3046L65.1584 36.8046L66.5 34.1213L67.8416 31.438L64.8416 29.938L63.5 32.6213ZM66.5 34.1213L64.8359 36.6175L67.8359 38.6175L69.5 36.1213L71.1641 33.6252L68.1641 31.6252L66.5 34.1213ZM69.5 36.1213L68.0116 38.726L71.5116 40.726L73 38.1213L74.4884 35.5166L70.9884 33.5166L69.5 36.1213ZM73 38.1213L71.0794 40.426L74.0794 42.926L76 40.6213L77.9206 38.3167L74.9206 35.8167L73 38.1213ZM76 40.6213L74.3359 43.1175L77.3359 45.1175L79 42.6213L80.6641 40.1252L77.6641 38.1252L76 40.6213ZM79 42.6213L77.3359 45.1175L81.8359 48.1175L83.5 45.6213L85.1641 43.1252L80.6641 40.1252L79 42.6213ZM83.5 45.6213L81.1953 47.5419L83.6953 50.5419L86 48.6213L88.3047 46.7008L85.8047 43.7008L83.5 45.6213ZM86 48.6213L83.5588 50.365L88.5588 57.365L91 55.6213L93.4412 53.8776L88.4412 46.8776L86 48.6213ZM91 55.6213L88.1057 56.4107L89.6057 61.9107L92.5 61.1213L95.3943 60.332L93.8943 54.832L91 55.6213ZM92.5 61.1213L89.5408 61.6145L90.5408 67.6145L93.5 67.1213L96.4592 66.6281L95.4592 60.6281L92.5 61.1213ZM93.5 67.1213H90.5V75.1213H93.5H96.5V67.1213H93.5ZM93.5 75.1213H90.5V84.6213H93.5H96.5V75.1213H93.5ZM93.5 84.6213H90.5V89.1213H93.5H96.5V84.6213H93.5ZM93.5 89.1213H90.5V95.1213H93.5H96.5V89.1213H93.5ZM93.5 95.1213H90.5V100.621H93.5H96.5V95.1213H93.5ZM93.5 100.621H90.5V124.121H93.5H96.5V100.621H93.5ZM93.5 124.121H90.5V126.621H93.5H96.5V124.121H93.5ZM93.5 126.621H90.5V129.121H93.5H96.5V126.621H93.5ZM93.5 129.121L90.7146 130.235L91.7146 132.735L94.5 131.621L97.2854 130.507L96.2854 128.007L93.5 129.121ZM94.5 131.621L91.9275 133.165L93.4275 135.665L96 134.121L98.5725 132.578L97.0725 130.078L94.5 131.621ZM96 134.121L93.6 135.921L95.1 137.921L97.5 136.121L99.9 134.321L98.4 132.321L96 134.121ZM97.5 136.121L95.3787 138.243L96.8787 139.743L99 137.621L101.121 135.5L99.6213 134L97.5 136.121ZM99 137.621L96.8787 139.743L98.3787 141.243L100.5 139.121L102.621 137L101.121 135.5L99 137.621ZM100.5 139.121L99.3858 141.907L101.886 142.907L103 140.121L104.114 137.336L101.614 136.336L100.5 139.121ZM103 140.121L101.886 142.907L104.386 143.907L105.5 141.121L106.614 138.336L104.114 137.336L103 140.121ZM105.5 141.121L105.007 144.081L108.007 144.581L108.5 141.621L108.993 138.662L105.993 138.162L105.5 141.121ZM108.5 141.621V144.621H111V141.621V138.621H108.5V141.621ZM111 141.621V144.621H113V141.621V138.621H111V141.621ZM113 141.621V144.621H115V141.621V138.621H113V141.621ZM115 141.621V144.621H117V141.621V138.621H115V141.621ZM117 141.621V138.621H114V141.621V144.621H117V141.621ZM114 141.621H117V133.621H114H111V141.621H114ZM114 133.621H117V126.621H114H111V133.621H114ZM114 126.621L117 126.573L116.5 95.5729L113.5 95.6213L110.5 95.6697L111 126.67L114 126.621ZM113.5 95.6213L116.49 95.3722L115.99 89.3722L113 89.6213L110.01 89.8705L110.51 95.8705L113.5 95.6213ZM113 89.6213L115.683 88.2797L113.683 84.2797L111 85.6213L108.317 86.963L110.317 90.963L113 89.6213ZM111 85.6213L113.605 84.1329L111.605 80.6329L109 82.1213L106.395 83.6097L108.395 87.1097L111 85.6213ZM109 82.1213L111.121 80L108.121 77L106 79.1213L103.879 81.2426L106.879 84.2426L109 82.1213Z" fill="currentColor"/>
<path d="M58 58.1213L54 64.6213L58 72.1213L62.5 64.6213L58 58.1213Z" stroke="currentColor" stroke-width="6"/>
</svg>
