<svg width="220" height="220" viewBox="0 0 200 200" fill="none" xmlns="http://www.w3.org/2000/svg">
  <!-- Outer Dome -->
  <path d="M100 10C70 40 40 45 25 80C15 105 30 130 50 140L50 160C30 150 20 130 20 100C20 60 60 35 100 10C140 35 180 60 180 100C180 130 170 150 150 160L150 140C170 130 185 105 175 80C160 45 130 40 100 10" stroke="currentColor" stroke-width="10" stroke-linecap="round" stroke-linejoin="round"/>
  <!-- Inner Dome -->
  <path d="M100 55C75 75 60 80 60 100C60 120 75 135 100 155C125 135 140 120 140 100C140 80 125 75 100 55" stroke="currentColor" stroke-width="10" stroke-linecap="round" stroke-linejoin="round"/>
  <!-- Center Diamond -->
  <polygon points="100,75 115,90 100,105 85,90" stroke="currentColor" stroke-width="8" fill="none"/>
  <!-- Inner Small Diamond -->
  <polygon points="100,82 108,90 100,98 92,90" fill="currentColor"/>
</svg>
